<?xml version="1.0" encoding="UTF-8"?>
<svg id="Layer_2" data-name="Layer 2" xmlns="http://www.w3.org/2000/svg" viewBox="0 0 203.6 103.6">
  <defs>
    <style>
      .cls-1 {
        fill: none;
        stroke: #000;
        stroke-miterlimit: 10;
        stroke-width: 8.5px;
      }
    </style>
  </defs>
  <g id="Layer_1-2" data-name="Layer 1">
    <rect class="cls-1" x="4.3" y="4.3" width="195.1" height="95.1" rx="29.1" ry="29.1"/>
    <g>
      <path d="M38.9,67.5c0,1-.1,2-.4,3-.2,1-.8,2-1.6,2.8-.7.7-1.4,1.2-2.3,1.5-.9.3-1.7.5-2.6.5s-1.7-.2-2.6-.5c-.9-.3-1.6-.8-2.3-1.5-.8-.8-1.3-1.7-1.6-2.8-.2-1-.4-2-.4-3V26c0-1,.1-2,.4-3,.2-1,.8-2,1.6-2.8s1.4-1.2,2.3-1.5c.9-.3,1.7-.5,2.6-.5s1.7.2,2.6.5c.9.3,1.6.8,2.3,1.5.8.8,1.3,1.7,1.6,2.8.2,1,.4,2,.4,3v41.5Z"/>
      <path d="M85.4,67.5c0,1-.1,2-.4,3-.2,1-.8,2-1.6,2.8-.8.8-1.7,1.3-2.8,1.6-1,.2-2,.4-3,.4h-27.1c-1,0-2-.1-3-.4-1-.2-2-.8-2.8-1.6-.8-.8-1.3-1.7-1.6-2.8-.2-1-.4-2-.4-3v-27.1c0-1,.1-2,.4-3,.2-1,.8-2,1.6-2.8s1.7-1.3,2.8-1.6c1-.2,2-.4,3-.4h27.1c1,0,2,.1,3,.4,1,.2,2,.8,2.8,1.6.8.8,1.3,1.7,1.6,2.8.2,1,.4,2,.4,3v27.1ZM75.7,60.8c-.5,0-1.1,0-1.6-.1-.6,0-1-.3-1.4-.7-.4-.4-.6-.9-.8-1.4-.1-.6-.2-1.1-.2-1.5v-6c0-.5,0-1,.2-1.5.1-.6.4-1,.8-1.4.4-.4.9-.6,1.4-.7.6,0,1.1-.1,1.6-.1v-.7c-.5,0-1.1,0-1.6-.1-.6,0-1-.3-1.4-.7-.4-.4-.6-.9-.8-1.4-.1-.6-.2-1.1-.2-1.7h-.7c0,.5,0,1.1-.1,1.6,0,.6-.3,1-.7,1.4-.4.4-.9.6-1.4.8-.6.1-1.1.2-1.5.2h-6c-.5,0-1,0-1.5-.2-.6-.1-1-.4-1.4-.8-.4-.4-.6-.9-.7-1.4,0-.6-.1-1.1-.1-1.6h-.7c0,.5,0,1.1-.2,1.7-.1.6-.4,1.1-.8,1.4-.4.4-.9.6-1.4.7-.6,0-1.1.1-1.6.1v.7c.5,0,1.1,0,1.6.1.6,0,1,.3,1.4.7.4.4.6.9.8,1.4.1.6.2,1.1.2,1.5v6c0,.5,0,1-.2,1.5-.1.6-.4,1-.8,1.4-.4.4-.9.6-1.4.7-.6,0-1.1.1-1.6.1v.7c.5,0,1.1,0,1.6.1.6,0,1,.3,1.4.7.4.4.6.9.8,1.4.1.6.2,1.1.2,1.7h.7c0-.5,0-1.1.1-1.6,0-.6.3-1,.7-1.4.4-.4.9-.6,1.4-.8.6-.1,1.1-.2,1.5-.2h6c.5,0,1,0,1.5.2.6.1,1,.4,1.4.8.4.4.6.9.7,1.4,0,.6.1,1.1.1,1.6h.7c0-.5,0-1.1.2-1.7.1-.6.4-1.1.8-1.4.4-.4.9-.6,1.4-.7.6,0,1.1-.1,1.6-.1v-.7Z"/>
      <path d="M99.1,47.1c.5,0,1.1,0,1.6.1.6,0,1,.3,1.4.7.4.4.6.9.8,1.4.1.6.2,1.1.2,1.5v6c0,.5,0,1-.2,1.5-.1.6-.4,1-.8,1.4-.4.4-.9.6-1.4.7-.6,0-1.1.1-1.6.1v.7c.5,0,1.1,0,1.6.1.6,0,1,.3,1.4.7.4.4.6.9.8,1.4.1.6.2,1.1.2,1.7h.7c0-.5,0-1.1.1-1.6,0-.6.3-1,.7-1.4.4-.4.9-.6,1.4-.8.6-.1,1.1-.2,1.5-.2h2.2c1,0,2,.1,3,.4,1,.2,2,.8,2.8,1.6.7.7,1.2,1.4,1.5,2.3.3.9.5,1.7.5,2.6s-.2,1.7-.5,2.6c-.3.9-.8,1.6-1.5,2.3-.8.8-1.7,1.3-2.8,1.6-1,.2-2,.4-3,.4h-12.7c-1,0-2-.1-3-.4-1-.2-2-.8-2.8-1.6-.8-.8-1.3-1.7-1.6-2.8-.2-1-.4-2-.4-3v-27.1c0-1,.1-2,.4-3,.2-1,.8-2,1.6-2.8s1.7-1.3,2.8-1.6c1-.2,2-.4,3-.4h27.1c1,0,2,.1,3,.4,1,.2,2,.8,2.8,1.6.8.8,1.3,1.7,1.6,2.8.2,1,.4,2,.4,3v41.5c0,1-.1,2-.4,3-.2,1-.8,2-1.6,2.8-.8.8-1.7,1.3-2.8,1.6-1,.2-2,.4-3,.4h-27.1c-1,0-2-.1-3-.4-1-.2-2-.8-2.8-1.6s-1.2-1.4-1.5-2.3c-.3-.9-.5-1.7-.5-2.6s.2-1.7.5-2.6c.3-.9.8-1.6,1.5-2.3.8-.8,1.7-1.3,2.8-1.6,1-.2,2-.4,3-.4h16.6c.5,0,1,0,1.5.2.6.1,1,.4,1.4.8s.6.9.7,1.4c0,.6.1,1.1.1,1.6h.7c0-.5,0-1.1.2-1.7.1-.6.4-1.1.8-1.4.4-.4.9-.6,1.4-.7.6,0,1.1-.1,1.6-.1v-.7c-.5,0-1.1,0-1.6-.1-.6,0-1-.3-1.4-.7-.4-.4-.6-.9-.8-1.4-.1-.6-.2-1.1-.2-1.5v-20.4c0-.5,0-1,.2-1.5.1-.6.4-1,.8-1.4.4-.4.9-.6,1.4-.7.6,0,1.1-.1,1.6-.1v-.7c-.5,0-1.1,0-1.6-.1-.6,0-1-.3-1.4-.7-.4-.4-.6-.9-.8-1.4-.1-.6-.2-1.1-.2-1.7h-.7c0,.5,0,1.1-.1,1.6,0,.6-.3,1-.7,1.4-.4.4-.9.6-1.4.8-.6.1-1.1.2-1.5.2h-6c-.5,0-1,0-1.5-.2-.6-.1-1-.4-1.4-.8-.4-.4-.6-.9-.7-1.4,0-.6-.1-1.1-.1-1.6h-.7c0,.5,0,1.1-.2,1.7-.1.6-.4,1.1-.8,1.4-.4.4-.9.6-1.4.7-.6,0-1.1.1-1.6.1v.7Z"/>
      <path d="M178.4,67.5c0,1-.1,2-.4,3-.2,1-.8,2-1.6,2.8-.8.8-1.7,1.3-2.8,1.6-1,.2-2,.4-3,.4h-27.1c-1,0-2-.1-3-.4-1-.2-2-.8-2.8-1.6-.8-.8-1.3-1.7-1.6-2.8-.2-1-.4-2-.4-3v-27.1c0-1,.1-2,.4-3,.2-1,.8-2,1.6-2.8s1.7-1.3,2.8-1.6c1-.2,2-.4,3-.4h27.1c1,0,2,.1,3,.4,1,.2,2,.8,2.8,1.6.8.8,1.3,1.7,1.6,2.8.2,1,.4,2,.4,3v27.1ZM168.7,60.8c-.5,0-1.1,0-1.6-.1-.6,0-1-.3-1.4-.7-.4-.4-.6-.9-.8-1.4-.1-.6-.2-1.1-.2-1.5v-6c0-.5,0-1,.2-1.5.1-.6.4-1,.8-1.4.4-.4.9-.6,1.4-.7.6,0,1.1-.1,1.6-.1v-.7c-.5,0-1.1,0-1.6-.1-.6,0-1-.3-1.4-.7-.4-.4-.6-.9-.8-1.4-.1-.6-.2-1.1-.2-1.7h-.7c0,.5,0,1.1-.1,1.6,0,.6-.3,1-.7,1.4-.4.4-.9.6-1.4.8-.6.1-1.1.2-1.5.2h-6c-.5,0-1,0-1.5-.2-.6-.1-1-.4-1.4-.8-.4-.4-.6-.9-.7-1.4,0-.6-.1-1.1-.1-1.6h-.7c0,.5,0,1.1-.2,1.7-.1.6-.4,1.1-.8,1.4-.4.4-.9.6-1.4.7-.6,0-1.1.1-1.6.1v.7c.5,0,1.1,0,1.6.1.6,0,1,.3,1.4.7.4.4.6.9.8,1.4.1.6.2,1.1.2,1.5v6c0,.5,0,1-.2,1.5-.1.6-.4,1-.8,1.4-.4.4-.9.6-1.4.7-.6,0-1.1.1-1.6.1v.7c.5,0,1.1,0,1.6.1.6,0,1,.3,1.4.7.4.4.6.9.8,1.4.1.6.2,1.1.2,1.7h.7c0-.5,0-1.1.1-1.6,0-.6.3-1,.7-1.4.4-.4.9-.6,1.4-.8.6-.1,1.1-.2,1.5-.2h6c.5,0,1,0,1.5.2.6.1,1,.4,1.4.8.4.4.6.9.7,1.4,0,.6.1,1.1.1,1.6h.7c0-.5,0-1.1.2-1.7.1-.6.4-1.1.8-1.4.4-.4.9-.6,1.4-.7.6,0,1.1-.1,1.6-.1v-.7Z"/>
    </g>
  </g>
</svg>