<?xml version="1.0" encoding="UTF-8"?><svg id="Layer_1" xmlns="http://www.w3.org/2000/svg" viewBox="0 0 798 294.7"><defs><style>.cls-1{fill:#231f20;}.cls-2{fill:#9697ca;stroke-width:8.5px;}.cls-2,.cls-3{stroke:#231f20;stroke-miterlimit:10;}.cls-3{fill:#9797ca;stroke-width:5.7px;}</style></defs><rect class="cls-2" x="4.3" y="241.7" width="785.4" height="48.8" rx="18" ry="18"/><rect class="cls-2" x="8.3" y="38.4" width="785.4" height="48.8" rx="18" ry="18"/><path class="cls-1" d="M215.7,230.4c0,4.4-.6,9.1-1.7,13.8-1.1,4.8-3.6,9.1-7.3,12.8-3.8,3.8-8.1,6.2-12.8,7.3-4.8,1.1-9.4,1.7-13.8,1.7H54.7c-4.4,0-9.1-.6-13.8-1.7-4.8-1.1-9.1-3.6-12.8-7.3-3.1-3.1-5.4-6.7-6.8-10.7-1.4-4-2.2-8-2.2-12s.7-8,2.2-12c1.4-4,3.7-7.5,6.8-10.7,3.8-3.8,8-6.2,12.8-7.3,4.8-1.1,9.4-1.7,13.8-1.7h76.6c2.2,0,4.6.3,7.2.8,2.6.6,4.7,1.7,6.5,3.5,1.8,1.8,2.9,3.9,3.3,6.5.4,2.6.7,5.1.7,7.5h3.3c0-2.4.3-5,.8-7.7.6-2.7,1.7-4.9,3.5-6.7,1.8-1.8,3.9-2.9,6.5-3.3,2.6-.4,5.1-.7,7.5-.7v-3.3c-2.4,0-4.9-.2-7.5-.7-2.6-.4-4.7-1.6-6.5-3.3-1.8-1.8-2.9-4-3.5-6.7-.6-2.7-.8-5.2-.8-7.7h-3.3c0,2.4-.2,4.9-.7,7.5-.4,2.6-1.6,4.7-3.3,6.5-1.8,1.8-3.9,2.9-6.5,3.5-2.6.6-4.9.8-7.2.8H54.7c-4.4,0-9.1-.6-13.8-1.7-4.8-1.1-9.1-3.6-12.8-7.3-3.8-3.8-6.2-8-7.3-12.8-1.1-4.8-1.7-9.4-1.7-13.8v-58.6c0-4.4.6-9.1,1.7-13.8,1.1-4.8,3.6-9,7.3-12.8,3.8-3.8,8-6.2,12.8-7.3,4.8-1.1,9.4-1.7,13.8-1.7h125.3c4.4,0,9,.6,13.8,1.7,4.8,1.1,9,3.6,12.8,7.3,3.1,3.1,5.4,6.7,6.8,10.7,1.4,4,2.2,8,2.2,12s-.7,8-2.2,12c-1.4,4-3.7,7.6-6.8,10.7-3.8,3.8-8.1,6.2-12.8,7.3-4.8,1.1-9.4,1.7-13.8,1.7h-76.6c-2.2,0-4.6-.3-7.2-.8-2.6-.6-4.7-1.7-6.5-3.5-1.8-1.8-2.9-3.9-3.3-6.5-.4-2.6-.7-5.1-.7-7.5h-3.3c0,2.4-.3,5-.8,7.7-.6,2.7-1.7,4.9-3.5,6.7-1.8,1.8-3.9,2.9-6.5,3.3-2.6.4-5.1.7-7.5.7v3.3c2.4,0,4.9.2,7.5.7,2.6.4,4.7,1.6,6.5,3.3,1.8,1.8,2.9,4,3.5,6.7.6,2.7.8,5.2.8,7.7h3.3c0-2.4.2-4.9.7-7.5.4-2.6,1.6-4.7,3.3-6.5,1.8-1.8,3.9-2.9,6.5-3.5,2.6-.6,4.9-.8,7.2-.8h76.6c4.4,0,9,.6,13.8,1.7,4.8,1.1,9,3.6,12.8,7.3,3.8,3.8,6.2,8.1,7.3,12.8,1.1,4.8,1.7,9.4,1.7,13.8v58.6Z"/><path class="cls-3" d="M207.3,225.4c0,4.3-.5,8.9-1.6,13.5-1.1,4.7-3.5,8.9-7.2,12.5-3.7,3.7-7.9,6.1-12.5,7.2-4.7,1.1-9.2,1.6-13.5,1.6H49.9c-4.3,0-8.9-.5-13.5-1.6-4.7-1.1-8.9-3.5-12.5-7.2-3-3-5.3-6.5-6.7-10.4-1.4-3.9-2.1-7.8-2.1-11.7s.7-7.8,2.1-11.7c1.4-3.9,3.6-7.4,6.7-10.4,3.7-3.7,7.9-6.1,12.5-7.2,4.7-1.1,9.2-1.6,13.5-1.6h75c2.2,0,4.5.3,7,.8,2.5.5,4.6,1.7,6.4,3.4,1.7,1.7,2.8,3.9,3.3,6.4.4,2.5.7,4.9.7,7.3h3.3c0-2.4.3-4.9.8-7.5.5-2.6,1.7-4.8,3.4-6.5,1.7-1.7,3.9-2.8,6.4-3.3,2.5-.4,4.9-.7,7.3-.7v-3.3c-2.4,0-4.8-.2-7.3-.7-2.5-.4-4.6-1.5-6.4-3.3-1.7-1.7-2.9-3.9-3.4-6.5-.5-2.6-.8-5.1-.8-7.5h-3.3c0,2.4-.2,4.8-.7,7.3-.4,2.5-1.5,4.6-3.3,6.4-1.7,1.7-3.9,2.9-6.4,3.4-2.5.5-4.8.8-7,.8H49.9c-4.3,0-8.9-.5-13.5-1.6-4.7-1.1-8.9-3.5-12.5-7.2-3.7-3.7-6.1-7.9-7.2-12.5-1.1-4.7-1.6-9.2-1.6-13.5v-57.4c0-4.3.5-8.9,1.6-13.5,1.1-4.7,3.5-8.8,7.2-12.5,3.7-3.7,7.9-6.1,12.5-7.2,4.7-1.1,9.2-1.6,13.5-1.6h122.5c4.3,0,8.8.5,13.5,1.6,4.7,1.1,8.8,3.5,12.5,7.2,3,3,5.3,6.5,6.7,10.4,1.4,3.9,2.1,7.8,2.1,11.7s-.7,7.8-2.1,11.7c-1.4,3.9-3.6,7.4-6.7,10.4-3.7,3.7-7.9,6.1-12.5,7.2-4.7,1.1-9.2,1.6-13.5,1.6h-75c-2.2,0-4.5-.3-7-.8-2.5-.5-4.6-1.7-6.4-3.4-1.7-1.7-2.8-3.9-3.3-6.4-.4-2.5-.7-4.9-.7-7.3h-3.3c0,2.4-.3,4.9-.8,7.5-.5,2.6-1.7,4.8-3.4,6.5-1.7,1.7-3.9,2.8-6.4,3.3-2.5.4-4.9.7-7.3.7v3.3c2.4,0,4.8.2,7.3.7,2.5.4,4.6,1.5,6.4,3.3,1.7,1.7,2.9,3.9,3.4,6.5.5,2.6.8,5.1.8,7.5h3.3c0-2.4.2-4.8.7-7.3.4-2.5,1.5-4.6,3.3-6.4,1.7-1.7,3.9-2.9,6.4-3.4,2.5-.5,4.8-.8,7-.8h75c4.3,0,8.8.5,13.5,1.6,4.7,1.1,8.8,3.5,12.5,7.2,3.7,3.7,6.1,7.9,7.2,12.5,1.1,4.7,1.6,9.2,1.6,13.5v57.4Z"/><path class="cls-1" d="M424.2,234.4c0,4-.7,8-2.2,12-1.4,4-3.7,7.6-6.8,10.7-3.8,3.8-8.1,6.2-12.8,7.3-4.8,1.1-9.4,1.7-13.8,1.7h-125.3c-4.4,0-9.1-.6-13.8-1.7-4.8-1.1-9.1-3.6-12.8-7.3-3.8-3.8-6.2-8-7.3-12.8-1.1-4.8-1.7-9.4-1.7-13.8v-125.3c0-4.4.6-9.1,1.7-13.8,1.1-4.8,3.6-9,7.3-12.8,3.8-3.8,8-6.2,12.8-7.3,4.8-1.1,9.4-1.7,13.8-1.7h125.3c4.4,0,9,.6,13.8,1.7,4.8,1.1,9,3.6,12.8,7.3,3.8,3.8,6.2,8.1,7.3,12.8,1.1,4.8,1.7,9.4,1.7,13.8v58.6c0,4.4-.6,9.1-1.7,13.8-1.1,4.8-3.6,9.1-7.3,12.8-3.8,3.8-8.1,6.2-12.8,7.3-4.8,1.1-9.4,1.7-13.8,1.7h-58.6c-4.4,0-9.1-.6-13.8-1.7-4.8-1.1-9.1-3.6-12.8-7.3-3.1-3.1-5.4-6.7-6.8-10.7-1.4-4-2.2-8-2.2-12s.7-8,2.2-12c1.4-4,3.7-7.5,6.8-10.7,3.8-3.8,8-6.2,12.8-7.3,4.8-1.1,9.4-1.7,13.8-1.7h10c2.2,0,4.6.3,7.2.8,2.6.6,4.7,1.7,6.5,3.5,1.8,1.8,2.9,3.9,3.3,6.5.4,2.6.7,5.1.7,7.5h3.3c0-2.4.3-5,.8-7.7.6-2.7,1.7-4.9,3.5-6.7,1.8-1.8,3.9-2.9,6.5-3.3,2.6-.4,5.1-.7,7.5-.7v-3.3c-2.4,0-4.9-.2-7.5-.7-2.6-.4-4.7-1.6-6.5-3.3-1.8-1.8-2.9-4-3.5-6.7-.6-2.7-.8-5.2-.8-7.7h-3.3c0,2.4-.2,4.9-.7,7.5-.4,2.6-1.6,4.7-3.3,6.5-1.8,1.8-3.9,2.9-6.5,3.5-2.6.6-4.9.8-7.2.8h-28c-2.2,0-4.6-.3-7.2-.8-2.6-.6-4.7-1.7-6.5-3.5-1.8-1.8-2.9-3.9-3.3-6.5-.4-2.6-.7-5.1-.7-7.5h-3.3c0,2.4-.3,5-.8,7.7-.6,2.7-1.7,4.9-3.5,6.7-1.8,1.8-3.9,2.9-6.5,3.3-2.6.4-5.1.7-7.5.7v3.3c2.4,0,4.9.2,7.5.7,2.6.4,4.7,1.6,6.5,3.3,1.8,1.8,2.9,3.9,3.5,6.5.6,2.6.8,4.9.8,7.2v28c0,2.2-.3,4.6-.8,7.2-.6,2.6-1.7,4.7-3.5,6.5-1.8,1.8-3.9,2.9-6.5,3.3-2.6.4-5.1.7-7.5.7v3.3c2.4,0,4.9.2,7.5.7,2.6.4,4.7,1.6,6.5,3.3,1.8,1.8,2.9,4,3.5,6.7.6,2.7.8,5.2.8,7.7h3.3c0-2.4.2-4.9.7-7.5.4-2.6,1.6-4.7,3.3-6.5,1.8-1.8,3.9-2.9,6.5-3.5,2.6-.6,4.9-.8,7.2-.8h76.6c4.4,0,9,.6,13.8,1.7,4.8,1.1,9,3.6,12.8,7.3,3.1,3.1,5.4,6.7,6.8,10.7,1.4,4,2.2,8,2.2,12Z"/><path class="cls-3" d="M413.4,229.3c0,3.9-.7,7.8-2.1,11.7-1.4,3.9-3.6,7.4-6.7,10.4-3.7,3.7-7.9,6.1-12.5,7.2-4.7,1.1-9.2,1.6-13.5,1.6h-122.5c-4.3,0-8.9-.5-13.5-1.6-4.7-1.1-8.9-3.5-12.5-7.2-3.7-3.7-6.1-7.9-7.2-12.5-1.1-4.7-1.6-9.2-1.6-13.5v-122.5c0-4.3.5-8.9,1.6-13.5,1.1-4.7,3.5-8.8,7.2-12.5,3.7-3.7,7.9-6.1,12.5-7.2,4.7-1.1,9.2-1.6,13.5-1.6h122.5c4.3,0,8.8.5,13.5,1.6,4.7,1.1,8.8,3.5,12.5,7.2,3.7,3.7,6.1,7.9,7.2,12.5,1.1,4.7,1.6,9.2,1.6,13.5v57.4c0,4.3-.5,8.9-1.6,13.5-1.1,4.7-3.5,8.9-7.2,12.5-3.7,3.7-7.9,6.1-12.5,7.2-4.7,1.1-9.2,1.6-13.5,1.6h-57.4c-4.3,0-8.9-.5-13.5-1.6-4.7-1.1-8.9-3.5-12.5-7.2-3-3-5.3-6.5-6.7-10.4-1.4-3.9-2.1-7.8-2.1-11.7s.7-7.8,2.1-11.7c1.4-3.9,3.6-7.4,6.7-10.4,3.7-3.7,7.9-6.1,12.5-7.2,4.7-1.1,9.2-1.6,13.5-1.6h9.8c2.2,0,4.5.3,7,.8,2.5.5,4.6,1.7,6.4,3.4,1.7,1.7,2.8,3.9,3.3,6.4.4,2.5.7,4.9.7,7.3h3.3c0-2.4.3-4.9.8-7.5.5-2.6,1.7-4.8,3.4-6.5,1.7-1.7,3.9-2.8,6.4-3.3,2.5-.4,4.9-.7,7.3-.7v-3.3c-2.4,0-4.8-.2-7.3-.7-2.5-.4-4.6-1.5-6.4-3.3-1.7-1.7-2.9-3.9-3.4-6.5-.5-2.6-.8-5.1-.8-7.5h-3.3c0,2.4-.2,4.8-.7,7.3-.4,2.5-1.5,4.6-3.3,6.4-1.7,1.7-3.9,2.9-6.4,3.4-2.5.5-4.8.8-7,.8h-27.4c-2.2,0-4.5-.3-7-.8-2.5-.5-4.6-1.7-6.4-3.4-1.7-1.7-2.8-3.9-3.3-6.4-.4-2.5-.7-4.9-.7-7.3h-3.3c0,2.4-.3,4.9-.8,7.5-.5,2.6-1.7,4.8-3.4,6.5-1.7,1.7-3.9,2.8-6.4,3.3-2.5.4-4.9.7-7.3.7v3.3c2.4,0,4.8.2,7.3.7,2.5.4,4.6,1.5,6.4,3.3,1.7,1.7,2.9,3.9,3.4,6.4.5,2.5.8,4.8.8,7v27.4c0,2.2-.3,4.5-.8,7-.5,2.5-1.7,4.6-3.4,6.4-1.7,1.7-3.9,2.8-6.4,3.3-2.5.4-4.9.7-7.3.7v3.3c2.4,0,4.8.2,7.3.7,2.5.4,4.6,1.5,6.4,3.3,1.7,1.7,2.9,3.9,3.4,6.5.5,2.6.8,5.1.8,7.5h3.3c0-2.4.2-4.8.7-7.3.4-2.5,1.5-4.6,3.3-6.4,1.7-1.7,3.9-2.9,6.4-3.4,2.5-.5,4.8-.8,7-.8h75c4.3,0,8.8.5,13.5,1.6,4.7,1.1,8.8,3.5,12.5,7.2,3,3,5.3,6.5,6.7,10.4,1.4,3.9,2.1,7.8,2.1,11.7Z"/><path class="cls-1" d="M523.9,199.4c-2.2,0-4.6-.3-7.2-.8-2.6-.6-4.7-1.7-6.5-3.5-1.8-1.8-2.9-3.9-3.3-6.5-.4-2.6-.7-5.1-.7-7.5h-3.3c0,2.4-.3,5-.8,7.7-.6,2.7-1.7,4.9-3.5,6.7-1.8,1.8-3.9,2.9-6.5,3.3-2.6.4-5.1.7-7.5.7v3.3c2.4,0,4.9.2,7.5.7,2.6.4,4.7,1.6,6.5,3.3,1.8,1.8,2.9,4,3.5,6.7.6,2.7.8,5.2.8,7.7h3.3c0-2.4.2-4.9.7-7.5.4-2.6,1.6-4.7,3.3-6.5,1.8-1.8,3.9-2.9,6.5-3.5,2.6-.6,4.9-.8,7.2-.8h28c2.2,0,4.6.3,7.2.8,2.6.6,4.7,1.7,6.5,3.5,1.8,1.8,2.9,3.9,3.3,6.5.4,2.6.7,5.1.7,7.5h3.3c0-2.4.3-5,.8-7.7.6-2.7,1.7-4.9,3.5-6.7,1.8-1.8,3.9-2.9,6.5-3.3,2.6-.4,5.1-.7,7.5-.7v-3.3c-2.4,0-4.9-.2-7.5-.7-2.6-.4-4.7-1.6-6.5-3.3-1.8-1.8-2.9-3.9-3.5-6.5-.6-2.6-.8-4.9-.8-7.2v-28c0-2.2.3-4.6.8-7.2.6-2.6,1.7-4.7,3.5-6.5,1.8-1.8,3.9-2.9,6.5-3.3,2.6-.4,5.1-.7,7.5-.7v-3.3c-2.4,0-4.9-.2-7.5-.7-2.6-.4-4.7-1.6-6.5-3.3-1.8-1.8-2.9-4-3.5-6.7-.6-2.7-.8-5.2-.8-7.7h-3.3c0,2.4-.2,4.9-.7,7.5-.4,2.6-1.6,4.7-3.3,6.5-1.8,1.8-3.9,2.9-6.5,3.5-2.6.6-4.9.8-7.2.8h-76.6c-4.4,0-9.1-.6-13.8-1.7-4.8-1.1-9.1-3.6-12.8-7.3-3.1-3.1-5.4-6.7-6.8-10.7-1.4-4-2.2-8-2.2-12s.7-8,2.2-12c1.4-4,3.7-7.5,6.8-10.7,3.8-3.8,8-6.2,12.8-7.3,4.8-1.1,9.4-1.7,13.8-1.7h125.3c4.4,0,9,.6,13.8,1.7,4.8,1.1,9,3.6,12.8,7.3,3.8,3.8,6.2,8.1,7.3,12.8,1.1,4.8,1.7,9.4,1.7,13.8v125.3c0,4.4-.6,9.1-1.7,13.8-1.1,4.8-3.6,9.1-7.3,12.8-3.8,3.8-8.1,6.2-12.8,7.3-4.8,1.1-9.4,1.7-13.8,1.7h-125.3c-4.4,0-9.1-.6-13.8-1.7-4.8-1.1-9.1-3.6-12.8-7.3-3.8-3.8-6.2-8-7.3-12.8-1.1-4.8-1.7-9.4-1.7-13.8v-58.6c0-4.4.6-9,1.7-13.8,1.1-4.8,3.6-9.1,7.3-12.8,3.8-3.8,8-6.2,12.8-7.3,4.8-1.1,9.4-1.7,13.8-1.7h58.6c4.4,0,9.1.6,13.8,1.7,4.8,1.1,9,3.6,12.8,7.3,3.1,3.1,5.4,6.7,6.8,10.7,1.4,4,2.2,8,2.2,12s-.7,8-2.2,12c-1.4,4-3.7,7.6-6.8,10.7-3.8,3.8-8.1,6.2-12.8,7.3-4.8,1.1-9.4,1.7-13.8,1.7h-10Z"/><path class="cls-3" d="M513.2,195.1c-2.2,0-4.5-.3-7-.8-2.5-.5-4.6-1.7-6.4-3.4-1.7-1.7-2.8-3.9-3.3-6.4-.4-2.5-.7-4.9-.7-7.3h-3.3c0,2.4-.3,4.9-.8,7.5-.5,2.6-1.7,4.8-3.4,6.5-1.7,1.7-3.9,2.8-6.4,3.3-2.5.4-4.9.7-7.3.7v3.3c2.4,0,4.8.2,7.3.7,2.5.4,4.6,1.5,6.4,3.3,1.7,1.7,2.9,3.9,3.4,6.5.5,2.6.8,5.1.8,7.5h3.3c0-2.4.2-4.8.7-7.3.4-2.5,1.5-4.6,3.3-6.4,1.7-1.7,3.9-2.9,6.4-3.4,2.5-.5,4.8-.8,7-.8h27.4c2.2,0,4.5.3,7,.8,2.5.5,4.6,1.7,6.4,3.4,1.7,1.7,2.8,3.9,3.3,6.4.4,2.5.7,4.9.7,7.3h3.3c0-2.4.3-4.9.8-7.5.5-2.6,1.7-4.8,3.4-6.5,1.7-1.7,3.9-2.8,6.4-3.3,2.5-.4,4.9-.7,7.3-.7v-3.3c-2.4,0-4.8-.2-7.3-.7-2.5-.4-4.6-1.5-6.4-3.3-1.7-1.7-2.9-3.9-3.4-6.4-.5-2.5-.8-4.8-.8-7v-27.4c0-2.2.3-4.5.8-7,.5-2.5,1.7-4.6,3.4-6.4,1.7-1.7,3.9-2.8,6.4-3.3,2.5-.4,4.9-.7,7.3-.7v-3.3c-2.4,0-4.8-.2-7.3-.7-2.5-.4-4.6-1.5-6.4-3.3-1.7-1.7-2.9-3.9-3.4-6.5-.5-2.6-.8-5.1-.8-7.5h-3.3c0,2.4-.2,4.8-.7,7.3-.4,2.5-1.5,4.6-3.3,6.4-1.7,1.7-3.9,2.9-6.4,3.4-2.5.5-4.8.8-7,.8h-75c-4.3,0-8.9-.5-13.5-1.6-4.7-1.1-8.9-3.5-12.5-7.2-3-3-5.3-6.5-6.7-10.4-1.4-3.9-2.1-7.8-2.1-11.7s.7-7.8,2.1-11.7c1.4-3.9,3.6-7.4,6.7-10.4,3.7-3.7,7.9-6.1,12.5-7.2,4.7-1.1,9.2-1.6,13.5-1.6h122.5c4.3,0,8.8.5,13.5,1.6,4.7,1.1,8.8,3.5,12.5,7.2,3.7,3.7,6.1,7.9,7.2,12.5,1.1,4.7,1.6,9.2,1.6,13.5v122.5c0,4.3-.5,8.9-1.6,13.5-1.1,4.7-3.5,8.9-7.2,12.5-3.7,3.7-7.9,6.1-12.5,7.2-4.7,1.1-9.2,1.6-13.5,1.6h-122.5c-4.3,0-8.9-.5-13.5-1.6-4.7-1.1-8.9-3.5-12.5-7.2-3.7-3.7-6.1-7.9-7.2-12.5-1.1-4.7-1.6-9.2-1.6-13.5v-57.4c0-4.3.5-8.8,1.6-13.5,1.1-4.7,3.5-8.9,7.2-12.5,3.7-3.7,7.9-6.1,12.5-7.2,4.7-1.1,9.2-1.6,13.5-1.6h57.4c4.3,0,8.9.5,13.5,1.6,4.7,1.1,8.8,3.5,12.5,7.2,3,3,5.3,6.5,6.7,10.4,1.4,3.9,2.1,7.8,2.1,11.7s-.7,7.8-2.1,11.7c-1.4,3.9-3.6,7.4-6.7,10.4-3.7,3.7-7.9,6.1-12.5,7.2-4.7,1.1-9.2,1.6-13.5,1.6h-9.8Z"/><path class="cls-1" d="M780.9,233.4c0,4-.7,8-2.2,12-1.4,4-3.7,7.6-6.8,10.7-3.8,3.8-8.1,6.2-12.8,7.3-4.8,1.1-9.4,1.7-13.8,1.7h-58.6c-4.4,0-9.1-.6-13.8-1.7-4.8-1.1-9.1-3.6-12.8-7.3-3.8-3.8-6.2-8-7.3-12.8-1.1-4.8-1.7-9.4-1.7-13.8V37.5c0-4.4.6-9.1,1.7-13.8,1.1-4.8,3.6-9,7.3-12.8,3.1-3.1,6.7-5.4,10.7-6.8,4-1.4,8-2.2,12-2.2s8,.7,12,2.2c4,1.4,7.5,3.7,10.7,6.8,3.8,3.8,6.2,8.1,7.3,12.8,1.1,4.8,1.7,9.4,1.7,13.8v10c0,2.2-.3,4.6-.8,7.2-.6,2.6-1.7,4.7-3.5,6.5s-3.9,2.9-6.5,3.3c-2.6.4-5.1.7-7.5.7v3.3c2.4,0,4.9.2,7.5.7,2.6.4,4.7,1.6,6.5,3.3,1.8,1.8,2.9,4,3.5,6.7.6,2.7.8,5.2.8,7.7h3.3c0-2.4.2-4.9.7-7.5.4-2.6,1.6-4.7,3.3-6.5,1.8-1.8,3.9-2.9,6.5-3.5,2.6-.6,4.9-.8,7.2-.8h10c4.4,0,9.1.6,13.8,1.7,4.8,1.1,9,3.6,12.8,7.3,3.1,3.1,5.4,6.7,6.8,10.7,1.4,4,2.2,8,2.2,12s-.7,8-2.2,12c-1.4,4-3.7,7.6-6.8,10.7-3.8,3.8-8.1,6.2-12.8,7.3-4.8,1.1-9.4,1.7-13.8,1.7h-10c-2.2,0-4.6-.2-7-.7-2.4-.4-4.6-1.6-6.3-3.3-1.8-1.8-2.9-4-3.5-6.7-.6-2.7-.8-5.2-.8-7.7h-3.3c0,2.4-.2,4.9-.7,7.5-.4,2.6-1.6,4.7-3.3,6.5-1.8,1.8-4,2.9-6.7,3.5-2.7.6-5.2.8-7.7.8v3.3c2.4,0,5,.3,7.7.8,2.7.6,4.9,1.7,6.7,3.5,1.8,1.8,2.9,3.8,3.3,6.2.4,2.3.7,4.6.7,6.8v28.3c0,2.2-.3,4.6-.8,7.2-.6,2.6-1.7,4.7-3.5,6.5-1.8,1.8-3.9,2.9-6.5,3.3-2.6.4-5.1.7-7.5.7v3.3c2.4,0,4.9.2,7.5.7,2.6.4,4.7,1.6,6.5,3.3,1.8,1.8,2.9,4,3.5,6.7.6,2.7.8,5.2.8,7.7h3.3c0-2.4.2-4.9.7-7.5.4-2.6,1.6-4.7,3.3-6.5,1.8-1.8,3.9-2.9,6.5-3.5,2.6-.6,4.9-.8,7.2-.8h10c4.4,0,9.1.6,13.8,1.7,4.8,1.1,9,3.6,12.8,7.3,3.1,3.1,5.4,6.7,6.8,10.7,1.4,4,2.2,8,2.2,12Z"/><path class="cls-3" d="M771.8,229.3c0,3.9-.7,7.8-2.1,11.7-1.4,3.9-3.6,7.4-6.7,10.4-3.7,3.7-7.9,6.1-12.5,7.2-4.7,1.1-9.2,1.6-13.5,1.6h-57.4c-4.3,0-8.9-.5-13.5-1.6-4.7-1.1-8.9-3.5-12.5-7.2-3.7-3.7-6.1-7.9-7.2-12.5-1.1-4.7-1.6-9.2-1.6-13.5V37.7c0-4.3.5-8.9,1.6-13.5,1.1-4.7,3.5-8.8,7.2-12.5,3-3,6.5-5.3,10.4-6.7,3.9-1.4,7.8-2.1,11.7-2.1s7.8.7,11.7,2.1c3.9,1.4,7.4,3.6,10.4,6.7,3.7,3.7,6.1,7.9,7.2,12.5,1.1,4.7,1.6,9.2,1.6,13.5v9.8c0,2.2-.3,4.5-.8,7-.5,2.5-1.7,4.6-3.4,6.4s-3.9,2.8-6.4,3.3c-2.5.4-4.9.6-7.3.6v3.3c2.4,0,4.8.2,7.3.7,2.5.4,4.6,1.5,6.4,3.3,1.7,1.7,2.9,3.9,3.4,6.5.5,2.6.8,5.1.8,7.5h3.3c0-2.4.2-4.8.7-7.3.4-2.5,1.5-4.6,3.3-6.4,1.7-1.7,3.9-2.9,6.4-3.4,2.5-.5,4.8-.8,7-.8h9.8c4.3,0,8.9.5,13.5,1.6,4.7,1.1,8.8,3.5,12.5,7.2,3,3,5.3,6.5,6.7,10.4,1.4,3.9,2.1,7.8,2.1,11.7s-.7,7.8-2.1,11.7c-1.4,3.9-3.6,7.4-6.7,10.4-3.7,3.7-7.9,6.1-12.5,7.2-4.7,1.1-9.2,1.6-13.5,1.6h-9.8c-2.2,0-4.5-.2-6.8-.7-2.4-.4-4.5-1.5-6.2-3.3-1.7-1.7-2.9-3.9-3.4-6.5-.5-2.6-.8-5.1-.8-7.5h-3.3c0,2.4-.2,4.8-.7,7.3-.4,2.5-1.5,4.6-3.3,6.4-1.7,1.7-3.9,2.9-6.5,3.4-2.6.5-5.1.8-7.5.8v3.3c2.4,0,4.9.3,7.5.8,2.6.5,4.8,1.7,6.5,3.4,1.7,1.7,2.8,3.7,3.3,6,.4,2.3.7,4.5.7,6.7v27.7c0,2.2-.3,4.5-.8,7-.5,2.5-1.7,4.6-3.4,6.4-1.7,1.7-3.9,2.8-6.4,3.3-2.5.4-4.9.7-7.3.7v3.3c2.4,0,4.8.2,7.3.7,2.5.4,4.6,1.5,6.4,3.3,1.7,1.7,2.9,3.9,3.4,6.5.5,2.6.8,5.1.8,7.5h3.3c0-2.4.2-4.8.7-7.3.4-2.5,1.5-4.6,3.3-6.4,1.7-1.7,3.9-2.9,6.4-3.4,2.5-.5,4.8-.8,7-.8h9.8c4.3,0,8.9.5,13.5,1.6,4.7,1.1,8.8,3.5,12.5,7.2,3,3,5.3,6.5,6.7,10.4,1.4,3.9,2.1,7.8,2.1,11.7Z"/></svg>